<?xml version="1.0" encoding="utf-8"?>
<!-- Generator: Adobe Illustrator 19.1.0, SVG Export Plug-In . SVG Version: 6.00 Build 0)  -->
<svg version="1.1" id="Layer_1" xmlns="http://www.w3.org/2000/svg" xmlns:xlink="http://www.w3.org/1999/xlink" x="0px" y="0px"
	 width="300px" height="76px" viewBox="0 0 300 76" style="enable-background:new 0 0 300 76;" xml:space="preserve">
<style type="text/css">
	.st0{display:none;}
	.st1{display:inline;}
	.st2{fill-rule:evenodd;clip-rule:evenodd;fill:#0071BC;}
	.st3{fill-rule:evenodd;clip-rule:evenodd;fill:#518A15;}
	.st4{fill:#518A15;}
	.st5{fill:#0071BC;}
	.st6{fill:url(#SVGID_1_);stroke:#518A15;stroke-width:3.5677;}
	.st7{fill:url(#SVGID_2_);stroke:#518A15;stroke-width:3.5677;}
</style>
<g id="source" class="st0">
	<g class="st1">
		<path class="st2" d="M746.4-558.6c-17.3-1.2-28.8,1.6-50,13.6c-23.9,13.6-49,1-70-20.4c-0.4-0.3-0.8-0.6-1.2-0.9
			c11.1,14.3,21.2,27.6,34.1,35.8c28.8,18.1,51.3,5.6,66.2-13C731.3-550.6,737.1-557.2,746.4-558.6z"/>
		<path class="st3" d="M696.4-545c21.2-12.1,32.7-14.8,50-13.6c0.1,0,0.2,0,0.3,0c-11.1-2.3-23-9.2-34-14.8
			c-30-15.3-46.6-4.2-59.7,7c-7.6,6.5-17.2,7.2-26.5,1.1C647.4-544,672.5-531.4,696.4-545z"/>
	</g>
	<text transform="matrix(1 0 0 1 759.5295 -553.2285)" class="st1"><tspan x="0" y="0" class="st4" style="font-family:'MyriadPro-Bold'; font-size:43px;">CLEANTECH </tspan><tspan x="0" y="29.8" class="st5" style="font-family:'MyriadPro-Bold'; font-size:26px;">                   </tspan><tspan x="99.8" y="29.8" class="st5" style="font-family:'MyriadPro-Bold'; font-size:29px;">BULGARIA</tspan></text>
	<g class="st1">
		<path class="st2" d="M1448.4-573.5c-17.3-1.2-28.8,1.6-50,13.6c-23.9,13.6-49,1-70-20.4c-0.4-0.3-0.8-0.6-1.2-0.9
			c11.1,14.3,21.2,27.6,34.1,35.8c28.8,18.1,51.3,5.6,66.2-13C1433.3-565.5,1439.1-572.1,1448.4-573.5z"/>
		<path class="st3" d="M1398.4-559.8c21.2-12.1,32.7-14.8,50-13.6c0.1,0,0.2,0,0.3,0c-11.1-2.3-23-9.2-34-14.8
			c-30-15.3-46.6-4.2-59.7,7c-7.6,6.5-17.2,7.2-26.5,1.1C1349.4-558.8,1374.5-546.2,1398.4-559.8z"/>
	</g>
	<text transform="matrix(1 0 0 1 1124.5295 -552.3926)" class="st1"><tspan x="0" y="0" class="st4" style="font-family:'HelveticaNeueLTPro-MdCn'; font-size:43px;">CLEANTECH</tspan><tspan x="216.5" y="0" class="st5" style="font-family:'HelveticaNeueLTPro-MdCn'; font-size:41px;">              </tspan><tspan x="338.2" y="0" class="st5" style="font-family:'HelveticaNeueLTPro-MdCn'; font-size:43px;">BULGARIA</tspan></text>
	<g class="st1">
		<path class="st2" d="M1979.8-602.5c-17.3-1.2-28.8,1.6-50,13.6c-23.9,13.6-49,1-70-20.4c-0.4-0.3-0.8-0.6-1.2-0.9
			c11.1,14.3,21.2,27.6,34.1,35.8c28.8,18.1,51.3,5.6,66.2-13C1964.6-594.5,1970.4-601.1,1979.8-602.5z"/>
		<path class="st3" d="M1929.8-588.8c21.2-12.1,32.7-14.8,50-13.6c0.1,0,0.2,0,0.3,0c-11.1-2.3-23-9.2-34-14.8
			c-30-15.3-46.6-4.2-59.7,7c-7.6,6.5-17.2,7.2-26.5,1.1C1880.8-587.8,1905.8-575.2,1929.8-588.8z"/>
	</g>
	<g class="st1">
		
			<text transform="matrix(1.3546 0 0 1 1759.0818 -513.0381)" style="fill:#808080; font-family:'HelveticaNeueLTPro-LtCn'; font-size:15.2874px;">Management : Networking : Communication</text>
		<text transform="matrix(1 0 0 1 1758.1804 -529.3926)"><tspan x="0" y="0" class="st4" style="font-family:'HelveticaNeueLTPro-HvCn'; font-size:35px;">CLEANTECH </tspan><tspan x="183.6" y="0" class="st5" style="font-family:'HelveticaNeueLTPro-HvCn'; font-size:35px;">BULGARIA</tspan></text>
	</g>
	<g class="st1">
		<path class="st2" d="M740.4-380.6c-17.3-1.2-28.8,1.6-50,13.6c-23.9,13.6-49,1-70-20.4c-0.4-0.3-0.8-0.6-1.2-0.9
			c11.1,14.3,21.2,27.6,34.1,35.8c28.8,18.1,51.3,5.6,66.2-13C725.3-372.6,731.1-379.2,740.4-380.6z"/>
		<path class="st3" d="M690.4-367c21.2-12.1,32.7-14.8,50-13.6c0.1,0,0.2,0,0.3,0c-11.1-2.3-23-9.2-34-14.8
			c-30-15.3-46.6-4.2-59.7,7c-7.6,6.5-17.2,7.2-26.5,1.1C641.4-366,666.5-353.4,690.4-367z"/>
	</g>
	<text transform="matrix(1 0 0 1 753.5295 -375.228)" class="st1"><tspan x="0" y="0" class="st4" style="font-family:'Calibri-Bold'; font-size:43px;">CLEANTECH </tspan><tspan x="0" y="29.8" class="st5" style="font-family:'Calibri-Bold'; font-size:26px;">              </tspan><tspan x="82.3" y="29.8" class="st5" style="font-family:'Calibri-Bold'; font-size:29px;">BULGARIA</tspan></text>
	<g class="st1">
		<text transform="matrix(1.3546 0 0 1 969.0818 -387.0381)"><tspan x="0" y="0" style="fill:#808080; font-family:'HelveticaNeueLTPro-LtCn'; font-size:20px;">Management</tspan><tspan x="0" y="20.2" style="fill:#808080; font-family:'HelveticaNeueLTPro-LtCn'; font-size:20px;">Networking</tspan><tspan x="0" y="40.4" style="fill:#808080; font-family:'HelveticaNeueLTPro-LtCn'; font-size:20px;">Communication</tspan></text>
	</g>
	<g class="st1">
		<path class="st2" d="M1313.4-378.6c-17.3-1.2-28.8,1.6-50,13.6c-23.9,13.6-49,1-70-20.4c-0.4-0.3-0.8-0.6-1.2-0.9
			c11.1,14.3,21.2,27.6,34.1,35.8c28.8,18.1,51.3,5.6,66.2-13C1298.3-370.6,1304.1-377.2,1313.4-378.6z"/>
		<path class="st3" d="M1263.4-365c21.2-12.1,32.7-14.8,50-13.6c0.1,0,0.2,0,0.3,0c-11.1-2.3-23-9.2-34-14.8
			c-30-15.3-46.6-4.2-59.7,7c-7.6,6.5-17.2,7.2-26.5,1.1C1214.4-364,1239.5-351.4,1263.4-365z"/>
	</g>
	<text transform="matrix(1 0 0 1 1365.0457 -370.228)" class="st1"><tspan x="0" y="0" class="st4" style="font-family:'HelveticaRoundedBold'; font-size:43px;">CLEANTECH</tspan><tspan x="216.5" y="0" class="st5" style="font-family:'HelveticaRoundedBold'; font-size:21px;">BULGARIA</tspan></text>
	<g class="st1">
		
			<text transform="matrix(1.4625 0 0 1 1330.0813 -343.0381)" style="fill:#4D4D4D; font-family:'HelveticaNeueLTPro-UltLtCn'; font-size:20px;">Management Networking Communication</text>
	</g>
</g>
<g id="Radiation">
</g>
<g>
	<g>
		<path class="st4" d="M114.7,37.9c-1.1,0.5-3.6,1.1-6.7,1.1c-9.1,0-13.8-5.7-13.8-13.2c0-9,6.4-14,14.4-14c3.1,0,5.4,0.6,6.5,1.2
			l-1.3,4.7c-1.2-0.5-2.9-1-5-1c-4.7,0-8.4,2.9-8.4,8.7c0,5.3,3.1,8.6,8.4,8.6c1.8,0,3.8-0.4,5-0.9L114.7,37.9z"/>
		<path class="st4" d="M118.7,12.3h5.9v21.4h10.5v5h-16.4V12.3z"/>
		<path class="st4" d="M154.4,27.5h-9.7v6.3h10.8v4.9h-16.8V12.3h16.2v4.9h-10.3v5.5h9.7V27.5z"/>
		<path class="st4" d="M165.7,31.9l-1.9,6.8h-6.1l8-26.4h7.8l8.2,26.4h-6.5l-2-6.8H165.7z M172.4,27.4l-1.6-5.6
			c-0.5-1.6-0.9-3.5-1.3-5.1h-0.1c-0.4,1.6-0.8,3.6-1.2,5.1l-1.6,5.6H172.4z"/>
		<path class="st4" d="M185.2,38.6V12.3h7l5.5,9.7c1.6,2.8,3.1,6.1,4.3,9h0.1c-0.4-3.5-0.5-7-0.5-11v-7.7h5.5v26.4h-6.3l-5.6-10.2
			c-1.6-2.8-3.3-6.2-4.6-9.3h-0.2c0.2,3.5,0.3,7.2,0.3,11.5v7.9H185.2z"/>
		<path class="st4" d="M217.4,17.3h-7.1v-5h20.3v5h-7.2v21.4h-6V17.3z"/>
		<path class="st4" d="M249.4,27.5h-9.7v6.3h10.8v4.9h-16.8V12.3H250v4.9h-10.3v5.5h9.7V27.5z"/>
		<path class="st4" d="M273.9,37.9c-1.1,0.5-3.6,1.1-6.7,1.1c-9.1,0-13.8-5.7-13.8-13.2c0-9,6.4-14,14.4-14c3.1,0,5.4,0.6,6.5,1.2
			l-1.3,4.7c-1.2-0.5-2.9-1-5-1c-4.7,0-8.4,2.9-8.4,8.7c0,5.3,3.1,8.6,8.4,8.6c1.8,0,3.8-0.4,5-0.9L273.9,37.9z"/>
		<path class="st4" d="M283.9,12.3v10.1h9.8V12.3h5.9v26.4h-5.9v-11h-9.8v11h-6V12.3H283.9z"/>
		<path class="st5" d="M182.6,48.2c1-0.2,3.1-0.4,5.1-0.4c2.4,0,3.9,0.2,5.2,1c1.2,0.7,2.1,1.9,2.1,3.5c0,1.6-0.9,3-2.9,3.8v0.1
			c2,0.5,3.5,2.1,3.5,4.4c0,1.6-0.7,2.9-1.8,3.8c-1.3,1-3.4,1.6-6.8,1.6c-1.9,0-3.4-0.1-4.3-0.3V48.2z M186.5,55h1.3
			c2.1,0,3.2-0.9,3.2-2.2c0-1.3-1-2.1-2.8-2.1c-0.9,0-1.4,0.1-1.7,0.1V55z M186.5,62.9c0.4,0.1,0.8,0.1,1.5,0.1
			c1.8,0,3.4-0.7,3.4-2.6c0-1.8-1.6-2.5-3.5-2.5h-1.3V62.9z"/>
		<path class="st5" d="M202.1,48v10.2c0,3.1,1.2,4.6,3.1,4.6c2.1,0,3.2-1.5,3.2-4.6V48h3.9v10c0,5.5-2.7,8.1-7.2,8.1
			c-4.4,0-6.9-2.5-6.9-8.2V48H202.1z"/>
		<path class="st5" d="M215.8,48h3.9v14.4h6.9v3.4h-10.8V48z"/>
		<path class="st5" d="M242.4,64.9c-1.2,0.4-3.5,1-5.8,1c-3.2,0-5.5-0.8-7.1-2.4c-1.6-1.6-2.4-3.9-2.4-6.5c0-5.9,4.2-9.3,9.9-9.3
			c2.2,0,4,0.4,4.8,0.8l-0.8,3.2c-1-0.4-2.1-0.8-4-0.8c-3.3,0-5.8,1.9-5.8,5.8c0,3.7,2.3,5.8,5.5,5.8c0.9,0,1.6-0.1,1.9-0.2v-3.7
			H236v-3.1h6.5V64.9z"/>
		<path class="st5" d="M249.6,61.2l-1.2,4.6h-4l5.3-17.8h5.2l5.4,17.8h-4.3l-1.3-4.6H249.6z M254,58.2l-1.1-3.8
			c-0.3-1.1-0.6-2.4-0.9-3.4h-0.1c-0.3,1.1-0.5,2.4-0.8,3.4l-1,3.8H254z"/>
		<path class="st5" d="M262.4,48.2c1.3-0.2,3.1-0.4,5.2-0.4c2.6,0,4.4,0.4,5.6,1.4c1.1,0.8,1.6,2.1,1.6,3.7c0,2.2-1.6,3.8-3.1,4.4
			v0.1c1.2,0.5,1.9,1.7,2.3,3.3c0.5,2,1.1,4.4,1.4,5h-4c-0.3-0.5-0.7-2-1.2-4.1c-0.5-2.2-1.2-2.8-2.9-2.8h-1.2v7h-3.9V48.2z
			 M266.3,55.8h1.5c2,0,3.1-1,3.1-2.6c0-1.6-1.1-2.5-2.9-2.5c-1,0-1.5,0.1-1.8,0.1V55.8z"/>
		<path class="st5" d="M281.6,48v17.8h-3.9V48H281.6z"/>
		<path class="st5" d="M289.1,61.2l-1.2,4.6h-4l5.3-17.8h5.2l5.4,17.8h-4.3l-1.3-4.6H289.1z M293.5,58.2l-1.1-3.8
			c-0.3-1.1-0.6-2.4-0.9-3.4h-0.1c-0.3,1.1-0.5,2.4-0.8,3.4l-1,3.8H293.5z"/>
	</g>
	<g>
		<path class="st5" d="M76.1,41.8c-0.1,1-0.3,2.4-0.5,3.4c-0.8,3.8-0.9,3.9-1.6,6c-0.7,1.6-1.6,3.8-2.4,5.4l-1.2,2
			c-12.4,17-58.3,0.3-65.9-4.7c-0.4-1-0.9-2.3-1.3-3.3c-1-3.4-1.1-3.6-1.5-6c-0.1-1.2-0.3-2.8-0.4-4C44.4,59.7,74.7,56.7,76.1,41.8"
			/>
		<path class="st5" d="M61.5,68.3c-0.8,0.5-1.8,1.3-2.5,1.8c-3.2,1.9-3.4,2-5.4,2.9c-3.3,1.3-3.6,1.4-5.9,2c-0.9,0.2-2.1,0.5-3,0.6
			c-12,1.5-23.8-3.9-26.1-5.3l-0.4-0.2c-1-0.7-1-0.7-1.5-1C15.7,68,15.6,68,15,67.5c-1.3-1.1-3.2-2.7-5.4-5.4
			C14.2,65.5,46.9,78.2,61.5,68.3"/>
		
			<radialGradient id="SVGID_1_" cx="-159.5417" cy="-11.4979" r="20.12" gradientTransform="matrix(0.8731 0 0 0.8731 179.6314 20.66)" gradientUnits="userSpaceOnUse">
			<stop  offset="0" style="stop-color:#FFFFFF"/>
			<stop  offset="6.930071e-002" style="stop-color:#E7F1E0"/>
			<stop  offset="0.1945" style="stop-color:#C1DAAF"/>
			<stop  offset="0.323" style="stop-color:#A1C685"/>
			<stop  offset="0.4528" style="stop-color:#86B663"/>
			<stop  offset="0.584" style="stop-color:#71A948"/>
			<stop  offset="0.7174" style="stop-color:#63A035"/>
			<stop  offset="0.8543" style="stop-color:#5A9B2A"/>
			<stop  offset="1" style="stop-color:#579926"/>
		</radialGradient>
		<path class="st6" d="M56.1,6.9C62,9.1,66.8,15.5,61.3,18c-3.3,1.5-9.9,1.4-17.7-0.4c-11-2.5-22.7-7.8-26-9.4C17.2,8.1,17,8,17,8
			l1.5-1c3.2-1.9,3.4-2,5.4-2.9c3.4-1.3,3.6-1.4,5.7-1.9C35.2,6.1,57.9,13.4,57,8.4C56.9,7.8,56.3,7.2,56.1,6.9"/>
		
			<radialGradient id="SVGID_2_" cx="-161.2999" cy="5.0466" r="32.4492" gradientTransform="matrix(0.8731 0 0 0.8731 179.6314 20.66)" gradientUnits="userSpaceOnUse">
			<stop  offset="0" style="stop-color:#FFFFFF"/>
			<stop  offset="6.930071e-002" style="stop-color:#E7F1E0"/>
			<stop  offset="0.1945" style="stop-color:#C1DAAF"/>
			<stop  offset="0.323" style="stop-color:#A1C685"/>
			<stop  offset="0.4528" style="stop-color:#86B663"/>
			<stop  offset="0.584" style="stop-color:#71A948"/>
			<stop  offset="0.7174" style="stop-color:#63A035"/>
			<stop  offset="0.8543" style="stop-color:#5A9B2A"/>
			<stop  offset="1" style="stop-color:#579926"/>
		</radialGradient>
		<path class="st7" d="M60,8c0.9,0.4,1.7,0.9,2.4,1.5c1.6,1.3,3.3,2.8,5.9,6c1.1,1.4,2.4,3.2,3.7,5.7c1.4,2.9,1.6,3.3,2.4,5.8
			c3.4,12.2-7,15-16.3,15.2c-21.6,0.5-44.6-9-53.3-12.6C3,28.8,3,28.8,2.6,28.7l0.8-2.4c1.4-3.7,1.5-3.8,2.6-5.8
			c0.9-1.5,2.2-3.5,3.3-5c0.6,0.2,0.6,0.2,2.5,1C19,19.6,38.5,28,54.8,28.3c12.7,0.2,17.8-4.3,13.5-12C66.5,13.3,63.5,10.2,60,8"/>
	</g>
</g>
</svg>
